<svg width="464" height="296" viewBox="0 0 464 296" fill="none" xmlns="http://www.w3.org/2000/svg">
<path d="M68.0973 139.902C68.0973 139.902 119.857 157.426 151.374 139.902C151.374 139.964 158.894 134.862 162.641 129.829C164.089 127.888 164.66 125.429 164.286 123.032C163.62 118.721 161.695 109.342 155.657 96.2179C155.657 96.2043 155.644 96.1907 155.637 96.1839C154.413 93.9227 150.265 87.9769 129.39 77.032C129.376 77.0252 129.363 77.0184 129.349 77.0047C128.431 76.4054 126.174 75.0637 119.694 63.9553C119.687 63.9417 119.68 63.928 119.666 63.9144C119.442 63.5943 118.068 61.8099 113.553 61.8576C112.853 61.8644 112.207 61.4966 111.881 60.8768C109.365 56.1433 99.2808 36.358 90.7132 32.7619C90.4344 32.6461 90.108 32.687 89.8564 32.8573C88.9521 33.4839 86.7693 35.207 87.0141 38.9665C87.0141 39.1164 87.3201 42.8964 84.4642 42.5763C81.5268 42.4605 81.9415 42.7125 80.5408 42.7261C80.0376 42.7261 79.616 43.1143 79.5752 43.6183C79.4528 45.0486 79.2828 47.8818 79.582 49.5777C79.6908 50.1771 79.4256 50.7764 78.9089 51.1033C77.4537 52.0228 74.9446 54.1341 75.5974 57.6281C75.9374 58.6769 75.4478 64.0234 93.9975 61.3876C93.9975 61.4489 103.143 59.3035 106.659 60.4954C107.332 60.7202 107.277 61.6941 106.584 61.8508C103.701 62.5046 97.1525 64.5683 94.9766 69.2132C94.9018 69.363 91.7807 77.3317 72.9727 89.3322L72.6191 89.5842C71.776 90.2517 62.0048 95.7616 59.9852 101.932C59.4685 103.335 54.5795 113.286 57.1294 121.636C57.3266 122.215 59.9308 137.103 68.0905 139.909L68.0973 139.902Z" fill="#1F5D5D"/>
<path d="M112.445 65.4946C112.119 64.4593 112.724 63.499 113.798 63.356C115.838 63.0904 119.048 63.247 120.972 66.271C121.101 66.4072 123.95 72.0125 126.63 74.6755C127.303 75.343 127.738 76.2079 127.881 77.1478C128.35 80.2467 128.771 86.9145 124.61 90.4152C124.229 90.7353 124.46 91.3551 124.964 91.3347C127.187 91.2529 131.396 90.5514 135.972 86.5739C136.516 86.104 137.298 86.0495 137.89 86.4582C139.692 87.7045 143.758 90.0747 146.308 91.539C147.647 92.3086 148.314 93.8683 147.953 95.3666C147.273 98.1863 146.192 102.361 145.696 102.511C146.22 102.055 142.323 105.842 138.835 107.98C138.373 108.259 138.604 108.975 139.141 108.941C142.16 108.736 148.049 107.721 150.762 105.481L150.877 105.358C151.408 104.588 154.597 99.099 155.433 97.6142C155.515 97.4712 155.726 97.4848 155.78 97.6414C156.657 99.8754 161.152 111.42 162.845 117.985C163.083 118.912 163.226 119.851 163.28 120.805C163.389 123.012 163.198 129.809 150.796 137.798C150.157 138.206 149.477 138.554 148.763 138.806C145.308 140.018 132.491 145.017 132.491 145.017C132.491 145.017 115.342 151.59 72.4289 140.175C72.1093 140.093 71.8102 139.943 71.5518 139.739C69.6886 138.268 62.5557 129.7 62.3585 118.537C62.3585 116.65 66.4316 120.131 68.3219 120.968C68.9271 121.234 69.4031 121.738 69.6478 122.358C70.5794 124.714 72.5785 129.747 73.5985 132.315C73.9861 133.296 74.836 134.025 75.8696 134.249L107.447 141.271C108.284 141.455 109.134 141.516 109.991 141.442L123.461 140.325C124.474 140.243 125.467 140.004 126.405 139.616L143.683 132.54C144.88 132.05 145.805 131.069 146.22 129.843L150.034 118.666C150.469 117.386 149.001 116.31 147.913 117.12C145.336 119.034 141.949 121.738 139.916 124.06C139.141 124.953 138.128 125.607 137.013 125.995C132.409 127.609 120.938 131.525 116.845 132.914C115.872 133.248 114.839 133.33 113.826 133.166L88.3811 129.073C87.0891 128.869 85.9196 128.201 85.0696 127.207L76.672 117.311C76.3388 116.916 76.0532 116.487 75.822 116.031L70.0014 104.541C69.2942 103.151 69.301 101.51 70.015 100.127C70.6338 98.9219 71.545 97.4099 72.7757 95.9728C73.2041 95.4756 74.0133 95.6868 74.1289 96.3338C74.6116 99.0717 77.0527 105.617 90.1422 117.774C90.353 118.081 96.2076 120.921 99.961 122.719C100.498 122.978 100.974 122.269 100.539 121.867L92.8621 114.771C92.7533 114.668 92.6445 114.559 92.5493 114.437L82.3361 102.028C81.7513 101.312 81.4318 100.42 81.4318 99.5008V94.5017C81.4318 93.8683 82.2409 93.5958 82.6217 94.1067L93.9636 109.438C94.4192 110.051 94.9768 110.575 95.6228 110.984L112.445 121.643C113.465 122.29 114.798 122.174 115.696 121.363L126.072 111.965C126.847 111.263 126.555 109.983 125.555 109.683L98.1727 101.558C97.4383 101.34 96.7855 100.924 96.2756 100.359L86.6063 89.6524C85.4504 88.372 85.3824 86.4445 86.4567 85.096C89.231 81.6021 94.256 75.1454 95.4528 72.6936C95.6296 72.3394 95.854 72.0261 96.1396 71.7537C96.8875 71.0317 98.3971 69.1451 99.9134 67.7557C101.117 66.6592 102.307 67.0815 102.552 68.6956C102.885 70.8683 103.347 73.8923 103.551 75.2408L103.395 76.5893L102.674 78.3601C102.429 78.9595 103.272 79.3749 103.606 78.8233L104.755 76.8754C105.115 76.2624 105.278 75.5541 105.21 74.8458L104.456 66.7001C104.428 66.4072 104.558 66.128 104.802 65.9577L107.883 63.8191C108.27 63.5535 108.794 63.7646 108.889 64.221C109.385 66.6115 110.963 72.748 114.608 75.268C115.016 75.5541 115.56 75.1523 115.403 74.6755C114.689 72.4824 113.254 67.9601 112.466 65.4809L112.445 65.4946Z" fill="#317975"/>
<path d="M109.888 60.5637C110.412 60.5637 110.752 59.9984 110.494 59.5353C108.025 55.0538 98.0365 37.3049 93.2291 35.2889C92.6103 35.0369 90.6248 36.1947 91.026 38.095C91.0668 38.4559 92.1276 42.2087 91.7264 43.6117C91.5632 43.9999 91.6244 44.9125 86.3206 45.4165C86.1982 45.4778 82.7167 45.0147 83.6143 47.3236C83.7707 47.6573 86.6674 50.4838 101.94 52.8812C102.164 52.9152 102.375 53.031 102.518 53.2081C103.504 54.4068 108.202 59.2016 109.31 60.3253C109.46 60.482 109.664 60.5637 109.882 60.5637H109.888Z" fill="#317975"/>
<path d="M105.747 58.9834L100.838 56.0071C100.512 55.8096 100.151 55.6734 99.7772 55.6052L83.4851 52.772C82.9479 52.6766 82.4039 52.7992 81.9483 53.0989C81.282 53.5416 80.33 54.2908 79.6568 55.326C79.0992 56.191 79.5888 57.3488 80.5884 57.5736C83.6347 58.2546 89.9584 59.5555 91.8691 59.9505C92.2363 60.0254 92.6171 60.0459 92.9911 60.0118C94.7862 59.8416 100.301 59.3376 101.137 59.4874C101.661 59.5827 103.592 59.8688 105.333 60.1276C105.999 60.223 106.319 59.3376 105.741 58.9902L105.747 58.9834Z" fill="#317975"/>
<path d="M104.693 50.7629C102.579 47.1055 99.3965 41.9974 97.0982 40.0768C96.5678 39.6272 95.745 39.852 95.5274 40.5126C95.0311 42.0315 94.5823 44.8647 95.3846 47.2213C95.5274 47.6367 95.8878 47.9364 96.3162 48.0113C97.683 48.2497 100.967 49.0261 103.925 51.4303C104.374 51.7913 104.986 51.2601 104.7 50.7629H104.693Z" fill="#3F9084"/>
<path d="M97.4654 56.7973L92.1548 55.6667C91.4748 55.5237 91.1689 56.4908 91.8148 56.7632L94.6639 57.9619C94.8543 58.0436 95.0583 58.0777 95.2555 58.0573L97.3906 57.9074C98.0434 57.8598 98.1046 56.9335 97.4654 56.7973Z" fill="#3F9084"/>
<path d="M90.9105 91.4233L96.4182 97.587C97.0778 98.3226 97.4042 98.5337 97.7646 98.6495L117.525 104.997C118.239 105.229 118.687 104.248 118.055 103.853C114.709 101.776 108.903 98.6904 100.369 95.8775C100.151 95.8026 99.9473 95.7005 99.7637 95.5711C98.6826 94.8014 94.5415 91.9341 91.6788 90.4425C91.0533 90.1156 90.4481 90.9057 90.9173 91.4301L90.9105 91.4233Z" fill="#3F9084"/>
<path d="M75.3391 109.138L78.8886 116.48C79.1538 116.97 79.2354 117.086 79.317 117.202L85.7495 123.413C86.2527 123.897 87.0279 123.257 86.6539 122.671C83.9408 118.428 79.6026 111.924 76.3863 108.43C75.8899 107.885 75.0195 108.471 75.3391 109.138Z" fill="#3F9084"/>
<path d="M135.129 123.951L117.375 130.987C116.239 131.436 115.933 131.477 115.621 131.443L106.223 130.401C105.469 130.32 105.394 129.243 106.128 129.06C112.765 127.377 126.908 123.89 134.816 122.76C135.544 122.657 135.823 123.686 135.136 123.958L135.129 123.951Z" fill="#3F9084"/>
<path d="M106.383 210.999L128.893 212.764C130.81 212.916 132.673 212.062 133.81 210.505L136.032 207.456C137.39 205.598 138.412 203.523 139.055 201.311L140.615 195.944C141.365 193.364 141.835 190.716 142.024 188.033L143.567 166.102C143.951 160.618 141.757 155.269 137.629 151.637L118.064 134.434C117.238 133.709 117.625 132.353 118.711 132.163C120.033 131.936 121.198 131.152 121.895 130.012L127.983 120.067C128.947 118.487 127.99 116.428 126.158 116.147L124.63 115.916C122.777 115.636 121.268 114.287 120.784 112.479L118.781 105.032C118.594 104.347 117.712 104.157 117.265 104.711L114.383 108.293C113.979 108.793 113.414 109.134 112.778 109.241C111.539 109.459 109.347 109.912 107.769 110.583C106.782 111.007 105.645 110.849 104.843 110.131C103.39 108.818 101.158 106.734 99.6826 104.79C99.1205 104.049 97.9713 104.207 97.6518 105.077C96.9949 106.88 96.0998 109.41 95.4949 111.148C95.0438 112.426 95.0252 113.816 95.427 115.109L97.9477 123.198C98.3375 124.441 97.554 125.741 96.2747 125.981C89.2765 127.282 68.8508 131.379 59.8497 136.278C58.3091 137.12 57.0472 138.374 56.1855 139.898C52.4943 146.4 41.472 167.697 42.8833 187.697C43.0205 188.002 42.8318 191.144 55.2432 195.343C60.974 197.281 66.3904 200.118 71.0738 203.945C76.2787 208.195 86.2761 213.062 103.608 211.056C104.523 210.95 105.449 210.92 106.371 210.995L106.383 210.999Z" fill="#1F5D5D"/>
<path d="M95.611 130.825L87.5495 132.881C86.5656 133.133 85.6283 133.545 84.7902 134.119C81.6553 136.237 76.2828 142.876 73.1701 149.194C73.163 149.219 72.9065 149.735 72.6652 150.542C71.4146 154.731 76.6625 158.376 79.7073 155.241C79.7346 155.216 79.7471 155.173 79.8068 155.15C81.2136 154.815 83.906 184.836 79.5737 193.132C79.4534 193.363 79.231 193.511 78.9801 193.551C77.4167 193.807 71.545 194.526 65.6767 192.169C65.5883 192.13 65.495 192.222 65.5428 192.309C66.4176 193.873 71.8788 202.524 90.7396 211.036C91.2269 211.258 91.7514 211.397 92.2886 211.447C94.099 211.621 98.5423 211.929 102.683 211.265C103.428 211.15 104.066 210.67 104.395 209.995C105.486 207.774 108.337 202.469 108.743 199.517C108.627 199.484 111.321 196.479 115.308 194.149C116.541 193.431 117.576 192.43 118.304 191.206C119.949 188.428 123.241 182.66 124.427 174.44C124.436 174.409 124.478 174.401 124.482 174.435C124.746 175.675 126.225 183.873 127.114 188.816C127.56 191.285 127.349 193.815 126.504 196.174L123.447 204.702C123.293 205.142 123.611 205.6 124.076 205.602L130.752 205.616C131.39 205.615 131.992 205.305 132.357 204.78L140.918 192.41C141.239 191.945 141.424 191.401 141.456 190.832L143.009 163.494C143.206 160.003 140.785 156.92 137.353 156.268C132.9 155.419 127.216 153.939 124.859 151.666C124.822 151.795 118.06 141.444 115.765 136.65C115.633 136.372 115.404 136.153 115.121 136.031C114.973 135.968 114.796 135.89 114.587 135.809C111.906 134.764 109.21 137.296 110.038 140.049C111.776 145.823 115.341 156.608 114.771 158.568C114.614 159.108 112.006 152.921 107.544 151.624C107.448 151.45 103.152 150.932 103.074 146.218C103.092 146.223 104.348 138.222 106.928 132.958C107.216 133.042 106.862 130.739 105.02 131.52C104.615 131.402 94.2306 137.334 93.5167 145.347C93.5559 145.212 92.3145 141.914 92.6909 140.116C92.648 139.898 95.2194 135.03 96.7119 132.228C97.1089 131.479 96.429 130.617 95.6092 130.831L95.611 130.825Z" fill="#317975"/>
<path d="M107.42 111.099C106.671 111.367 106.083 111.216 105.449 110.905C104.32 110.351 100.654 107.804 99.625 106.269C99.5972 106.227 99.5453 106.246 99.5513 106.294C99.8585 107.752 100.341 117.913 102.94 121.526C102.959 121.551 106.504 127.878 106.531 127.852C106.592 127.804 103.844 114.3 105.427 112.534C105.546 112.402 105.76 112.464 105.777 112.635C105.828 113.215 105.827 114.338 105.82 115.047C105.817 115.471 105.903 115.882 106.07 116.269L108.75 122.437C108.779 122.499 110.635 128.414 110.903 129.07C110.914 129.1 110.954 129.098 110.974 129.077L121.03 115.793C121.235 115.68 121.484 115.832 121.477 116.062L118.59 129.49C118.546 130.262 119.378 130.258 119.478 130.141L127.61 119.726C128.328 118.832 128.016 117.505 126.981 117.018C125.946 116.531 122.934 116.26 122.494 115.9C122.183 115.69 120.665 113.8 120.498 112.867C120.417 112.758 119.328 108.248 118.516 105.44C118.373 104.947 117.915 104.787 117.509 105.108C116.49 105.915 115.624 108.347 113.722 109.469C113.513 109.595 113.271 109.65 113.025 109.672C112.34 109.719 110.683 109.935 107.434 111.097L107.42 111.099Z" fill="#317975"/>
<path d="M83.8098 161.317L85.0621 186.255C85.1 186.97 85.4987 187.611 86.1239 187.952C88.4274 189.22 94.346 192.09 100.194 191.842C100.308 191.836 100.368 191.7 100.292 191.619C99.1473 190.389 92.8132 184.215 90.9959 182.258C90.6862 181.929 90.4609 181.538 90.3208 181.105C89.3351 178.094 85.0471 164.561 84.0064 161.281C83.9718 161.172 83.8095 161.204 83.816 161.319L83.8098 161.317Z" fill="#3F9084"/>
<path d="M111.932 139.888L115.76 152.536C115.823 152.754 115.939 152.948 116.099 153.107L125.53 162.666C125.562 162.695 125.612 162.683 125.612 162.637C125.644 161.749 125.846 155.634 125.354 155.04C125.259 154.932 122.85 151.262 118.489 148.705C118.34 148.622 118.214 148.505 118.112 148.376C117.217 147.179 113.066 141.294 112.046 139.841C112.003 139.782 111.91 139.828 111.929 139.9L111.932 139.888Z" fill="#3F9084"/>
<path d="M138.324 178.1L139.173 186.773C139.173 186.773 139.166 186.797 139.163 186.81L132.996 198.354C132.956 198.422 132.847 198.384 132.871 198.304L138.183 178.086C138.204 178.012 138.307 178.022 138.312 178.097L138.324 178.1Z" fill="#3F9084"/>
<path d="M112.934 122.789L118.56 116.172C118.601 116.124 118.618 116.062 118.612 115.994L117.687 108.588C117.675 108.492 117.551 108.462 117.497 108.533L115.429 111.281C115.166 111.637 114.982 112.042 114.897 112.469L112.86 122.748C112.848 122.791 112.905 122.821 112.936 122.783L112.934 122.789Z" fill="#3F9084"/>
<g clip-path="url(#clip0_100_1654)">
<path d="M230.695 107.208C230.695 107.208 178.936 124.733 147.419 107.208C147.419 107.27 139.898 102.168 136.152 97.1353C134.703 95.1942 134.132 92.7355 134.506 90.3381C135.173 86.0269 137.097 76.6485 143.135 63.5241C143.135 63.5105 143.149 63.4968 143.156 63.49C144.379 61.2289 148.527 55.2831 169.402 44.3381C169.416 44.3313 169.43 44.3245 169.443 44.3109C170.361 43.7115 172.619 42.3698 179.099 31.2614C179.106 31.2478 179.112 31.2342 179.126 31.2206C179.35 30.9005 180.724 29.116 185.239 29.1637C185.939 29.1705 186.585 28.8027 186.912 28.183C189.428 23.4495 199.512 3.66416 208.079 0.0680716C208.358 -0.0477117 208.684 -0.00684699 208.936 0.163422C209.84 0.790014 212.023 2.51314 211.778 6.27269C211.778 6.42253 211.472 10.2025 214.328 9.8824C217.266 9.76662 216.851 10.0186 218.252 10.0322C218.755 10.0322 219.176 10.4205 219.217 10.9245C219.34 12.3547 219.51 15.188 219.21 16.8839C219.102 17.4832 219.367 18.0826 219.884 18.4095C221.339 19.329 223.848 21.4403 223.195 24.9342C222.855 25.9831 223.345 31.3295 204.795 28.6938C204.795 28.7551 195.649 26.6097 192.134 27.8016C191.461 28.0263 191.515 29.0003 192.209 29.1569C195.092 29.8107 201.64 31.8744 203.816 36.5194C203.891 36.6692 207.012 44.6378 225.82 56.6384L226.173 56.8904C227.017 57.5578 236.788 63.0678 238.807 69.2383C239.324 70.6414 244.213 80.5919 241.663 88.9419C241.466 89.5208 238.862 104.409 230.702 107.215L230.695 107.208Z" fill="#1F5D5D"/>
<path d="M186.347 32.8007C186.674 31.7655 186.068 30.8052 184.994 30.6621C182.954 30.3965 179.745 30.5532 177.82 33.5772C177.691 33.7134 174.842 39.3186 172.163 41.9817C171.49 42.6491 171.055 43.5141 170.912 44.454C170.443 47.5529 170.021 54.2206 174.182 57.7214C174.563 58.0415 174.332 58.6612 173.829 58.6408C171.605 58.5591 167.396 57.8576 162.82 53.8801C162.276 53.4101 161.494 53.3557 160.903 53.7643C159.101 55.0107 155.034 57.3808 152.485 58.8451C151.145 59.6148 150.479 61.1744 150.839 62.6728C151.519 65.4925 152.6 69.6675 153.097 69.8173C152.573 69.361 156.469 73.1478 159.957 75.2864C160.42 75.5656 160.189 76.2807 159.651 76.2467C156.632 76.0424 150.744 75.0276 148.031 72.7868L147.915 72.6642C147.385 71.8946 144.196 66.4051 143.359 64.9204C143.278 64.7773 143.067 64.791 143.013 64.9476C142.135 67.1815 137.641 78.7258 135.948 85.2914C135.71 86.2177 135.567 87.1575 135.512 88.1111C135.404 90.3177 135.594 97.1149 147.997 105.104C148.636 105.513 149.316 105.86 150.03 106.112C153.484 107.324 166.302 112.323 166.302 112.323C166.302 112.323 183.451 118.896 226.364 107.481C226.683 107.399 226.982 107.249 227.241 107.045C229.104 105.574 236.237 97.0059 236.434 85.8431C236.434 83.9565 232.361 87.4368 230.471 88.2745C229.865 88.5401 229.389 89.0441 229.145 89.6639C228.213 92.0204 226.214 97.0536 225.194 99.6213C224.806 100.602 223.956 101.331 222.923 101.556L191.345 108.577C190.509 108.761 189.659 108.823 188.802 108.748L175.332 107.631C174.318 107.549 173.326 107.311 172.387 106.922L155.109 99.846C153.913 99.3557 152.988 98.3749 152.573 97.149L148.758 85.9725C148.323 84.692 149.792 83.6159 150.88 84.4264C153.457 86.3403 156.843 89.0441 158.876 91.3666C159.651 92.2588 160.665 92.9127 161.78 93.3009C166.383 94.915 177.854 98.8312 181.948 100.221C182.92 100.554 183.954 100.636 184.967 100.473L210.411 96.3793C211.703 96.175 212.873 95.5076 213.723 94.5132L222.121 84.6171C222.454 84.2221 222.739 83.793 222.97 83.3367L228.791 71.8469C229.498 70.4575 229.491 68.8161 228.777 67.4335C228.159 66.228 227.248 64.716 226.017 63.279C225.588 62.7818 224.779 62.9929 224.664 63.6399C224.181 66.3779 221.74 72.923 208.65 85.0803C208.439 85.3867 202.585 88.2268 198.831 90.0249C198.294 90.2837 197.818 89.5754 198.254 89.1735L205.93 82.0767C206.039 81.9745 206.148 81.8656 206.243 81.743L216.456 69.3337C217.041 68.6186 217.361 67.7264 217.361 66.8069V61.8078C217.361 61.1744 216.552 60.902 216.171 61.4128L204.829 76.7439C204.373 77.3568 203.816 77.8813 203.17 78.2899L186.347 88.9488C185.327 89.5958 183.994 89.48 183.097 88.6695L172.721 79.2707C171.945 78.5692 172.238 77.2887 173.237 76.9891L200.62 68.8638C201.354 68.6459 202.007 68.2304 202.517 67.6651L212.186 56.9586C213.342 55.6781 213.41 53.7507 212.336 52.4021C209.561 48.9082 204.536 42.4516 203.34 39.9997C203.163 39.6456 202.939 39.3323 202.653 39.0598C201.905 38.3379 200.395 36.4513 198.879 35.0619C197.676 33.9654 196.486 34.3876 196.241 36.0018C195.908 38.1744 195.445 41.1984 195.241 42.5469L195.398 43.8955L196.118 45.6663C196.363 46.2656 195.52 46.6811 195.187 46.1294L194.038 44.1815C193.677 43.5686 193.514 42.8602 193.582 42.1519L194.337 34.0062C194.364 33.7134 194.235 33.4341 193.99 33.2639L190.91 31.1253C190.522 30.8597 189.999 31.0708 189.903 31.5271C189.407 33.9177 187.83 40.0542 184.185 42.5742C183.777 42.8602 183.233 42.4584 183.389 41.9817C184.103 39.7886 185.538 35.2662 186.327 32.7871L186.347 32.8007Z" fill="#317975"/>
<path d="M188.904 27.8699C188.38 27.8699 188.04 27.3046 188.299 26.8414C190.767 22.3599 200.756 4.61106 205.563 2.59507C206.182 2.34307 208.168 3.5009 207.766 5.40111C207.726 5.76208 206.665 9.51482 207.066 10.9178C207.229 11.3061 207.168 12.2187 212.472 12.7227C212.594 12.784 216.076 12.3209 215.178 14.6297C215.022 14.9634 212.125 17.7899 196.853 20.1873C196.629 20.2214 196.418 20.3371 196.275 20.5142C195.289 21.7129 190.59 26.5077 189.482 27.6315C189.332 27.7881 189.128 27.8699 188.911 27.8699H188.904Z" fill="#317975"/>
<path d="M193.045 26.2895L197.955 23.3132C198.281 23.1157 198.641 22.9795 199.015 22.9114L215.307 20.0781C215.845 19.9828 216.389 20.1054 216.844 20.405C217.511 20.8477 218.462 21.5969 219.136 22.6322C219.693 23.4971 219.204 24.655 218.204 24.8797C215.158 25.5608 208.834 26.8617 206.923 27.2567C206.556 27.3316 206.175 27.352 205.801 27.318C204.006 27.1477 198.492 26.6437 197.655 26.7935C197.132 26.8889 195.201 27.1749 193.46 27.4338C192.794 27.5291 192.474 26.6437 193.052 26.2964L193.045 26.2895Z" fill="#317975"/>
<path d="M194.099 18.069C196.214 14.4116 199.396 9.30355 201.694 7.38291C202.225 6.9334 203.047 7.15815 203.265 7.8188C203.761 9.3376 204.21 12.1709 203.408 14.5274C203.265 14.9429 202.905 15.2425 202.476 15.3175C201.11 15.5558 197.825 16.3323 194.867 18.7365C194.419 19.0974 193.807 18.5662 194.092 18.069H194.099Z" fill="#3F9084"/>
<path d="M201.327 24.1034L206.638 22.9728C207.318 22.8298 207.624 23.7969 206.978 24.0694L204.129 25.2681C203.938 25.3498 203.734 25.3839 203.537 25.3634L201.402 25.2136C200.749 25.1659 200.688 24.2396 201.327 24.1034Z" fill="#3F9084"/>
<path d="M207.882 58.7294L202.374 64.8932C201.715 65.6288 201.388 65.8399 201.028 65.9557L181.268 72.3033C180.554 72.5349 180.105 71.5541 180.738 71.1591C184.083 69.0818 189.89 65.9965 198.424 63.1837C198.641 63.1088 198.845 63.0066 199.029 62.8772C200.11 62.1076 204.251 59.2403 207.114 57.7487C207.739 57.4218 208.344 58.2118 207.875 58.7363L207.882 58.7294Z" fill="#3F9084"/>
<path d="M223.453 76.4441L219.904 83.7862C219.639 84.2765 219.557 84.3923 219.476 84.5081L213.043 90.7195C212.54 91.2031 211.765 90.5629 212.139 89.9772C214.852 85.734 219.19 79.2298 222.406 75.7358C222.903 75.191 223.773 75.7767 223.453 76.4441Z" fill="#3F9084"/>
<path d="M163.663 91.2576L181.418 98.2931C182.553 98.7426 182.859 98.7835 183.172 98.7494L192.569 97.7074C193.324 97.6257 193.399 96.5496 192.664 96.3657C186.028 94.6834 171.884 91.1963 163.976 90.0657C163.249 89.9635 162.97 90.992 163.657 91.2644L163.663 91.2576Z" fill="#3F9084"/>
</g>
<path d="M451.698 275.206C451.698 275.206 399.938 292.73 368.422 275.206C368.422 275.267 360.901 270.166 357.155 265.133C355.706 263.192 355.135 260.733 355.509 258.336C356.175 254.024 358.1 244.646 364.138 231.522C364.138 231.508 364.151 231.494 364.158 231.488C365.382 229.226 369.53 223.281 390.405 212.336C390.419 212.329 390.432 212.322 390.446 212.308C391.364 211.709 393.621 210.367 400.102 199.259C400.108 199.245 400.115 199.232 400.129 199.218C400.353 198.898 401.727 197.114 406.242 197.161C406.942 197.168 407.588 196.8 407.914 196.181C410.43 191.447 420.514 171.662 429.082 168.066C429.361 167.95 429.687 167.991 429.939 168.161C430.843 168.788 433.026 170.511 432.781 174.27C432.781 174.42 432.475 178.2 435.331 177.88C438.268 177.764 437.854 178.016 439.254 178.03C439.758 178.03 440.179 178.418 440.22 178.922C440.342 180.352 440.512 183.186 440.213 184.881C440.104 185.481 440.37 186.08 440.886 186.407C442.341 187.327 444.851 189.438 444.198 192.932C443.858 193.981 444.347 199.327 425.798 196.691C425.798 196.753 416.652 194.607 413.137 195.799C412.463 196.024 412.518 196.998 413.211 197.154C416.095 197.808 422.643 199.872 424.819 204.517C424.893 204.667 428.014 212.635 446.822 224.636L447.176 224.888C448.019 225.555 457.79 231.065 459.81 237.236C460.327 238.639 465.216 248.589 462.666 256.939C462.469 257.518 459.864 272.407 451.705 275.213L451.698 275.206Z" fill="#1F5D5D"/>
<path d="M407.35 200.798C407.676 199.763 407.071 198.803 405.997 198.66C403.957 198.394 400.747 198.551 398.823 201.575C398.694 201.711 395.845 207.316 393.166 209.979C392.492 210.647 392.057 211.512 391.915 212.452C391.445 215.55 391.024 222.218 395.185 225.719C395.566 226.039 395.335 226.659 394.832 226.638C392.608 226.557 388.399 225.855 383.823 221.878C383.279 221.408 382.497 221.353 381.905 221.762C380.103 223.008 376.037 225.378 373.487 226.843C372.148 227.612 371.481 229.172 371.842 230.67C372.522 233.49 373.603 237.665 374.099 237.815C373.576 237.359 377.472 241.145 380.96 243.284C381.423 243.563 381.191 244.278 380.654 244.244C377.635 244.04 371.747 243.025 369.033 240.784L368.918 240.662C368.387 239.892 365.198 234.403 364.362 232.918C364.28 232.775 364.07 232.789 364.015 232.945C363.138 235.179 358.643 246.723 356.95 253.289C356.712 254.215 356.57 255.155 356.515 256.109C356.406 258.315 356.597 265.112 368.999 273.102C369.639 273.51 370.319 273.858 371.033 274.11C374.487 275.322 387.304 280.321 387.304 280.321C387.304 280.321 404.453 286.893 447.366 275.478C447.686 275.397 447.985 275.247 448.243 275.043C450.107 273.571 457.239 265.003 457.437 253.841C457.437 251.954 453.364 255.434 451.473 256.272C450.868 256.538 450.392 257.042 450.147 257.661C449.216 260.018 447.217 265.051 446.197 267.619C445.809 268.6 444.959 269.328 443.926 269.553L412.348 276.575C411.511 276.759 410.661 276.82 409.805 276.745L396.334 275.628C395.321 275.547 394.328 275.308 393.39 274.92L376.112 267.844C374.915 267.353 373.99 266.372 373.576 265.147L369.761 253.97C369.326 252.69 370.795 251.614 371.883 252.424C374.46 254.338 377.846 257.042 379.879 259.364C380.654 260.256 381.667 260.91 382.782 261.298C387.386 262.913 398.857 266.829 402.95 268.218C403.923 268.552 404.956 268.634 405.97 268.47L431.414 264.377C432.706 264.173 433.876 263.505 434.726 262.511L443.123 252.615C443.456 252.22 443.742 251.791 443.973 251.334L449.794 239.844C450.501 238.455 450.494 236.814 449.78 235.431C449.161 234.226 448.25 232.714 447.019 231.277C446.591 230.779 445.782 230.99 445.666 231.637C445.184 234.375 442.742 240.921 429.653 253.078C429.442 253.384 423.588 256.224 419.834 258.022C419.297 258.281 418.821 257.573 419.256 257.171L426.933 250.074C427.042 249.972 427.151 249.863 427.246 249.741L437.459 237.331C438.044 236.616 438.363 235.724 438.363 234.805V229.805C438.363 229.172 437.554 228.9 437.173 229.41L425.832 244.741C425.376 245.354 424.818 245.879 424.172 246.287L407.35 256.946C406.33 257.593 404.997 257.478 404.1 256.667L393.723 247.268C392.948 246.567 393.24 245.286 394.24 244.987L421.622 236.861C422.357 236.643 423.01 236.228 423.52 235.663L433.189 224.956C434.345 223.676 434.413 221.748 433.338 220.4C430.564 216.906 425.539 210.449 424.342 207.997C424.166 207.643 423.941 207.33 423.656 207.057C422.908 206.335 421.398 204.449 419.882 203.059C418.678 201.963 417.488 202.385 417.243 203.999C416.91 206.172 416.448 209.196 416.244 210.545L416.4 211.893L417.121 213.664C417.366 214.263 416.523 214.679 416.19 214.127L415.04 212.179C414.68 211.566 414.517 210.858 414.585 210.149L415.34 202.004C415.367 201.711 415.238 201.432 414.993 201.261L411.912 199.123C411.525 198.857 411.001 199.068 410.906 199.525C410.41 201.915 408.832 208.052 405.188 210.572C404.78 210.858 404.236 210.456 404.392 209.979C405.106 207.786 406.541 203.264 407.329 200.785L407.35 200.798Z" fill="#317975"/>
<path d="M409.907 195.867C409.383 195.867 409.043 195.302 409.302 194.839C411.77 190.358 421.759 172.609 426.566 170.593C427.185 170.341 429.17 171.498 428.769 173.399C428.728 173.76 427.668 177.512 428.069 178.915C428.232 179.304 428.171 180.216 433.475 180.72C433.597 180.782 437.078 180.318 436.181 182.627C436.024 182.961 433.128 185.787 417.856 188.185C417.631 188.219 417.42 188.335 417.278 188.512C416.292 189.71 411.593 194.505 410.485 195.629C410.335 195.786 410.131 195.867 409.914 195.867H409.907Z" fill="#317975"/>
<path d="M414.048 194.287L418.957 191.311C419.284 191.113 419.644 190.977 420.018 190.909L436.31 188.076C436.847 187.98 437.391 188.103 437.847 188.403C438.513 188.845 439.465 189.594 440.138 190.63C440.696 191.495 440.206 192.653 439.207 192.877C436.161 193.558 429.837 194.859 427.926 195.254C427.559 195.329 427.178 195.35 426.804 195.316C425.009 195.145 419.494 194.641 418.658 194.791C418.134 194.886 416.203 195.173 414.463 195.431C413.796 195.527 413.477 194.641 414.055 194.294L414.048 194.287Z" fill="#317975"/>
<path d="M415.102 186.067C417.216 182.409 420.399 177.301 422.697 175.38C423.227 174.931 424.05 175.156 424.268 175.816C424.764 177.335 425.213 180.168 424.411 182.525C424.268 182.94 423.907 183.24 423.479 183.315C422.112 183.553 418.828 184.33 415.87 186.734C415.421 187.095 414.809 186.564 415.095 186.067H415.102Z" fill="#3F9084"/>
<path d="M422.33 192.101L427.64 190.97C428.32 190.827 428.626 191.795 427.98 192.067L425.131 193.266C424.941 193.347 424.737 193.381 424.54 193.361L422.405 193.211C421.752 193.163 421.691 192.237 422.33 192.101Z" fill="#3F9084"/>
<path d="M428.885 226.727L423.377 232.891C422.717 233.626 422.391 233.837 422.031 233.953L402.271 240.301C401.557 240.532 401.108 239.552 401.74 239.157C405.086 237.079 410.893 233.994 419.426 231.181C419.644 231.106 419.848 231.004 420.031 230.875C421.113 230.105 425.254 227.238 428.116 225.746C428.742 225.419 429.347 226.209 428.878 226.734L428.885 226.727Z" fill="#3F9084"/>
<path d="M444.456 244.442L440.907 251.784C440.641 252.274 440.56 252.39 440.478 252.506L434.046 258.717C433.542 259.201 432.767 258.56 433.141 257.975C435.854 253.732 440.193 247.227 443.409 243.733C443.905 243.189 444.776 243.774 444.456 244.442Z" fill="#3F9084"/>
<path d="M384.666 259.255L402.42 266.291C403.556 266.74 403.862 266.781 404.175 266.747L413.572 265.705C414.327 265.623 414.401 264.547 413.667 264.363C407.03 262.681 392.887 259.194 384.979 258.063C384.251 257.961 383.973 258.99 384.659 259.262L384.666 259.255Z" fill="#3F9084"/>
<g clip-path="url(#clip1_100_1654)">
<path d="M231.415 132.686L205.948 127.401C203.779 126.953 201.992 125.409 201.235 123.321L199.757 119.235C198.853 116.743 198.39 114.119 198.39 111.465V105.026C198.39 101.932 198.721 98.852 199.375 95.8236L204.72 71.0674C206.058 64.8784 210.205 59.6669 215.939 56.9767L243.112 44.2384C244.259 43.7019 244.266 42.0774 243.127 41.5188C241.737 40.8426 240.701 39.6003 240.296 38.1156L236.76 25.1568C236.201 23.0987 237.922 21.1288 240.039 21.4081L241.803 21.6433C243.943 21.93 246.046 20.9229 247.163 19.078L251.773 11.485C252.199 10.7867 253.236 10.8602 253.552 11.6173L255.588 16.5054C255.875 17.1889 256.39 17.7476 257.059 18.071C258.36 18.7105 260.639 19.9159 262.169 21.1655C263.124 21.952 264.433 22.1431 265.55 21.6065C267.58 20.6216 270.719 19.0339 272.976 17.358C273.836 16.7185 275.057 17.2624 275.13 18.3283C275.277 20.5334 275.454 23.6205 275.564 25.7375C275.652 27.2957 275.226 28.8393 274.365 30.1404L268.976 38.2773C268.146 39.5268 268.594 41.2174 269.932 41.8937C277.255 45.5836 298.532 56.6827 306.913 64.996C308.346 66.422 309.339 68.2155 309.802 70.178C311.795 78.5575 317.139 105.658 309.148 127.327C308.898 127.621 308.096 131.157 293.017 131.811C286.055 132.113 279.152 133.509 272.741 136.236C265.617 139.265 252.993 141.433 234.466 133.641C233.488 133.23 232.474 132.899 231.43 132.686H231.415Z" fill="#1F5D5D"/>
<path d="M269.109 47.4652L277.365 52.3312C278.372 52.9266 279.277 53.6837 280.019 54.5878C282.806 57.9396 286.614 67.01 288.026 74.9999C288.026 75.0293 288.143 75.6835 288.151 76.6537C288.187 81.6887 281.21 84.0335 278.85 79.5865C278.828 79.5498 278.828 79.4983 278.769 79.4542C277.321 78.631 264.69 110.973 266.815 121.543C266.874 121.837 267.072 122.072 267.337 122.197C268.984 122.983 275.248 125.666 282.497 124.946C282.607 124.931 282.681 125.063 282.6 125.144C281.129 126.592 272.307 134.406 248.707 137.758C248.097 137.846 247.472 137.831 246.862 137.714C244.803 137.324 239.789 136.236 235.422 134.171C234.635 133.803 234.084 133.068 233.937 132.215C233.444 129.408 231.996 122.623 232.496 119.227C232.636 119.227 230.621 115.038 226.96 111.179C225.828 109.988 225.004 108.547 224.593 106.959C223.666 103.358 221.88 95.9191 223.21 86.4445C223.21 86.4077 223.166 86.3857 223.152 86.4224C222.46 87.7087 218.189 96.3014 215.616 101.483C214.329 104.071 213.748 106.937 213.925 109.819L214.564 120.234C214.594 120.771 214.094 121.175 213.579 121.028L206.19 118.897C205.485 118.691 204.919 118.154 204.683 117.456L199.191 101.02C198.985 100.403 198.956 99.7413 199.103 99.1019L206.176 68.3625C207.08 64.4373 210.749 61.8059 214.756 62.1881C219.953 62.6806 226.717 62.8717 230.055 61.115C230.055 61.2693 240.862 51.9931 244.943 47.4285C245.178 47.1639 245.502 46.9948 245.855 46.9507C246.038 46.9287 246.259 46.8993 246.516 46.8772C249.817 46.5832 251.986 50.251 250.185 53.0295C246.406 58.8584 238.995 69.6414 238.995 71.9936C238.995 72.6404 243.869 66.6351 249.222 66.6351C249.383 66.4734 254.302 67.2819 255.905 62.0926C255.883 62.0926 257.066 52.8384 255.905 46.1863C255.559 46.1863 256.691 43.7533 258.478 45.2087C258.963 45.2087 268.543 55.1097 266.756 64.2021C266.756 64.0404 269.19 60.7915 269.352 58.682C269.469 58.4541 268.19 52.243 267.44 48.6634C267.241 47.7078 268.271 46.9728 269.109 47.4726V47.4652Z" fill="#317975"/>
<path d="M262.389 21.8491C263.132 22.3856 263.83 22.4077 264.631 22.268C266.058 22.0181 270.932 20.379 272.564 19.0118C272.608 18.975 272.66 19.0118 272.638 19.0633C271.829 20.5774 268.028 31.6619 263.992 34.8225C263.962 34.8446 258.007 40.7029 257.985 40.6661C257.934 40.5926 265.315 26.5386 264.132 24.0762C264.043 23.8925 263.786 23.8925 263.712 24.0762C263.47 24.701 263.11 25.9432 262.889 26.7297C262.757 27.2002 262.529 27.6265 262.22 28.0013L257.272 33.9625C257.221 34.0213 253.265 39.9678 252.758 40.6073C252.736 40.6367 252.692 40.622 252.677 40.5926L245.825 22.665C245.634 22.4738 245.31 22.562 245.244 22.8193L244.119 38.6006C243.921 39.468 243.002 39.196 242.928 39.0343L237.282 24.8995C236.775 23.6793 237.547 22.3121 238.848 22.1063C240.149 21.9005 243.568 22.5694 244.171 22.3121C244.583 22.1798 246.869 20.5774 247.354 19.5998C247.479 19.5043 250.133 14.8662 251.935 12.0216C252.251 11.5217 252.809 11.4923 253.155 11.9775C254.023 13.1976 254.199 16.1672 255.941 18.0195C256.133 18.2253 256.383 18.365 256.647 18.4679C257.39 18.7398 259.154 19.5116 262.374 21.8417L262.389 21.8491Z" fill="#317975"/>
<path d="M272.358 84.989L262.955 112.171C262.683 112.95 262.036 113.531 261.235 113.707C258.279 114.369 250.81 115.64 244.421 113.487C244.296 113.442 244.274 113.273 244.384 113.207C246.046 112.215 255.037 107.422 257.676 105.842C258.125 105.578 258.5 105.217 258.794 104.784C260.852 101.77 269.947 88.1791 272.152 84.8861C272.226 84.7759 272.395 84.8641 272.351 84.989H272.358Z" fill="#3F9084"/>
<path d="M248.141 52.2431L239.84 65.0034C239.701 65.2239 239.51 65.4003 239.282 65.5253L225.776 73.0668C225.732 73.0889 225.68 73.0595 225.695 73.008C225.945 72.0157 227.688 65.1872 228.423 64.6874C228.562 64.5991 232.408 61.3135 238.054 59.8875C238.245 59.8434 238.422 59.7552 238.576 59.645C239.951 58.6086 246.435 53.4339 248.031 52.1549C248.097 52.1035 248.185 52.1843 248.141 52.2578V52.2431Z" fill="#3F9084"/>
<path d="M206.661 86.0255L202.933 95.3458C202.933 95.3458 202.933 95.3752 202.933 95.3899L206.043 110.142C206.065 110.23 206.198 110.223 206.198 110.127L206.823 86.0549C206.823 85.9667 206.705 85.9446 206.676 86.0255H206.661Z" fill="#3F9084"/>
<path d="M252.53 33.007L248.435 23.8777C248.405 23.8116 248.405 23.7381 248.435 23.6646L251.839 15.7702C251.883 15.6673 252.03 15.6747 252.067 15.7702L253.471 19.4749C253.647 19.9526 253.721 20.4598 253.677 20.9596L252.626 32.9849C252.626 33.0364 252.552 33.0511 252.53 32.9996V33.007Z" fill="#3F9084"/>
</g>
<g clip-path="url(#clip2_100_1654)">
<path d="M321.944 265.077L298.613 253.581C296.625 252.604 295.282 250.662 295.072 248.451L294.665 244.125C294.414 241.486 294.623 238.829 295.288 236.26L296.901 230.027C297.676 227.031 298.768 224.132 300.16 221.364L311.536 198.736C314.381 193.08 319.701 189.073 325.927 187.905L355.424 182.38C356.669 182.148 357.083 180.577 356.12 179.751C354.944 178.748 354.252 177.286 354.232 175.747L354.055 162.316C354.03 160.183 356.189 158.707 358.168 159.508L359.818 160.178C361.817 160.991 364.105 160.543 365.649 159.037L372.014 152.841C372.602 152.271 373.587 152.602 373.703 153.414L374.45 158.657C374.557 159.39 374.915 160.06 375.482 160.541C376.581 161.486 378.486 163.224 379.653 164.817C380.381 165.817 381.6 166.33 382.817 166.091C385.028 165.645 388.465 164.895 391.07 163.838C392.063 163.434 393.108 164.266 392.912 165.317C392.502 167.488 391.9 170.521 391.476 172.598C391.171 174.129 390.372 175.517 389.213 176.561L381.957 183.088C380.84 184.09 380.851 185.839 381.977 186.829C388.142 192.235 405.96 208.31 411.991 218.458C413.022 220.198 413.533 222.183 413.49 224.199C413.32 232.81 411.706 260.386 398.541 279.362C398.225 279.584 396.563 282.806 381.801 279.662C374.986 278.21 367.952 277.832 361.063 278.867C353.407 280.014 340.643 278.951 324.658 266.767C323.815 266.123 322.916 265.549 321.958 265.081L321.944 265.077Z" fill="#1F5D5D"/>
<path d="M379.784 192.016L386.558 198.795C387.384 199.624 388.07 200.584 388.562 201.645C390.42 205.588 391.835 215.323 391.2 223.412C391.193 223.44 391.143 224.103 390.907 225.044C389.681 229.928 382.339 230.45 381.168 225.554C381.156 225.513 381.169 225.463 381.123 225.405C379.927 224.246 359.597 252.392 359.007 263.157C358.99 263.457 359.123 263.734 359.348 263.921C360.745 265.095 366.137 269.262 373.336 270.38C373.446 270.394 373.484 270.54 373.386 270.598C371.6 271.632 361.101 276.986 337.414 274.319C336.801 274.252 336.2 274.081 335.639 273.814C333.743 272.921 329.162 270.612 325.451 267.519C324.782 266.966 324.432 266.116 324.503 265.254C324.73 262.412 325.027 255.481 326.362 252.319C326.497 252.354 325.596 247.793 323.018 243.14C322.221 241.703 321.784 240.102 321.783 238.462C321.789 234.743 321.923 227.094 325.584 218.255C325.594 218.219 325.556 218.187 325.533 218.219C324.542 219.291 318.254 226.54 314.465 230.912C312.571 233.094 311.29 235.724 310.74 238.558L308.75 248.802C308.644 249.328 308.058 249.595 307.597 249.323L300.978 245.409C300.346 245.033 299.932 244.371 299.88 243.636L298.68 226.349C298.635 225.7 298.773 225.052 299.075 224.47L313.623 196.482C315.481 192.909 319.692 191.28 323.475 192.654C328.384 194.433 334.885 196.312 338.556 195.448C338.517 195.597 351.304 189.324 356.398 185.927C356.692 185.73 357.047 185.647 357.4 185.693C357.583 185.718 357.804 185.744 358.059 185.787C361.328 186.33 362.509 190.424 360.069 192.663C354.951 197.359 345.075 205.942 344.486 208.219C344.324 208.845 350.547 204.252 355.729 205.593C355.926 205.477 360.485 207.492 363.337 202.87C363.315 202.864 366.779 194.201 367.321 187.47C366.987 187.384 368.692 185.312 370.057 187.169C370.527 187.29 377.321 199.275 373.314 207.63C373.354 207.474 376.524 204.938 377.209 202.936C377.38 202.745 377.697 196.412 377.868 192.758C377.915 191.783 379.096 191.33 379.782 192.023L379.784 192.016Z" fill="#317975"/>
<path d="M379.695 165.534C380.28 166.239 380.951 166.435 381.761 166.501C383.205 166.616 388.334 166.251 390.257 165.336C390.309 165.311 390.349 165.36 390.315 165.404C389.153 166.667 382.697 176.446 377.997 178.495C377.963 178.509 370.73 182.689 370.718 182.648C370.687 182.564 381.354 170.807 380.824 168.126C380.785 167.926 380.536 167.862 380.419 168.021C380.027 168.565 379.367 169.678 378.957 170.384C378.711 170.806 378.383 171.162 377.991 171.447L371.707 175.979C371.643 176.023 366.324 180.789 365.672 181.281C365.644 181.304 365.605 181.279 365.598 181.247L363.455 162.174C363.318 161.941 362.983 161.946 362.854 162.178L357.812 177.175C357.402 177.964 356.581 177.471 356.55 177.296L354.625 162.197C354.439 160.889 355.529 159.759 356.841 159.886C358.152 160.012 361.294 161.516 361.942 161.418C362.374 161.393 364.989 160.415 365.703 159.59C365.848 159.529 369.58 155.703 372.036 153.401C372.467 152.996 373.016 153.107 373.229 153.664C373.763 155.062 373.19 157.981 374.413 160.211C374.546 160.458 374.753 160.656 374.984 160.822C375.634 161.271 377.149 162.46 379.683 165.523L379.695 165.534Z" fill="#317975"/>
<path d="M373.53 229.158L357.617 253.117C357.159 253.804 356.387 254.204 355.567 254.174C352.54 254.074 344.99 253.434 339.344 249.748C339.234 249.674 339.255 249.505 339.379 249.469C341.236 248.924 351.141 246.537 354.092 245.668C354.593 245.524 355.046 245.27 355.439 244.923C358.187 242.522 370.396 231.642 373.356 229.007C373.455 228.918 373.597 229.046 373.523 229.156L373.53 229.158Z" fill="#3F9084"/>
<path d="M358.288 191.389L347.055 201.663C346.865 201.842 346.636 201.965 346.384 202.029L331.42 205.947C331.371 205.957 331.329 205.916 331.356 205.869C331.847 204.971 335.244 198.797 336.081 198.497C336.238 198.447 340.784 196.229 346.607 196.263C346.803 196.268 346.996 196.227 347.173 196.159C348.764 195.5 356.338 192.115 358.203 191.276C358.28 191.243 358.345 191.343 358.284 191.403L358.288 191.389Z" fill="#3F9084"/>
<path d="M309.668 213.704L303.724 221.793C303.724 221.793 303.717 221.822 303.713 221.836L303.028 236.897C303.028 236.988 303.158 237.014 303.182 236.921L309.817 213.773C309.839 213.687 309.731 213.637 309.682 213.707L309.668 213.704Z" fill="#3F9084"/>
<path d="M367.356 173.866L365.678 164.002C365.666 163.931 365.685 163.859 365.731 163.796L371.004 157.006C371.073 156.917 371.213 156.961 371.225 157.063L371.657 161.001C371.708 161.508 371.652 162.017 371.484 162.49L367.454 173.869C367.441 173.918 367.366 173.914 367.357 173.859L367.356 173.866Z" fill="#3F9084"/>
</g>
<g clip-path="url(#clip3_100_1654)">
<path d="M134.169 144.355L108.222 146.172C106.013 146.329 103.875 145.327 102.58 143.523L100.05 139.99C98.5039 137.837 97.3466 135.437 96.6272 132.882L94.8816 126.685C94.0426 123.706 93.5261 120.652 93.3349 117.56L91.768 92.2815C91.378 85.9614 93.9564 79.821 98.7468 75.6768L121.449 56.0488C122.407 55.2214 121.974 53.6558 120.726 53.427C119.205 53.1528 117.87 52.2381 117.078 50.9186L110.161 39.4039C109.065 37.5743 110.187 35.2118 112.301 34.9066L114.063 34.6546C116.2 34.3506 117.951 32.8112 118.527 30.7324L120.905 22.174C121.126 21.3863 122.144 21.176 122.654 21.819L125.939 25.9719C126.4 26.5521 127.047 26.9503 127.779 27.0802C129.205 27.343 131.725 27.8854 133.536 28.6736C134.669 29.1715 135.981 29.0007 136.911 28.1812C138.597 26.6831 141.188 24.3037 142.907 22.0787C143.561 21.2299 144.883 21.4226 145.243 22.4286C145.982 24.5113 146.989 27.435 147.669 29.4427C148.177 30.9187 148.185 32.5201 147.709 34.0056L144.728 43.2988C144.267 44.7268 145.157 46.2325 146.629 46.5206C154.677 48.0871 178.166 53.0022 188.488 58.732C190.254 59.7159 191.696 61.1731 192.674 62.9366C196.863 70.4621 209.355 95.099 207.537 118.123C207.377 118.474 207.564 122.094 193.227 126.812C186.607 128.99 180.341 132.206 174.909 136.568C168.873 141.415 157.31 146.924 137.365 144.448C136.312 144.316 135.246 144.273 134.183 144.351L134.169 144.355Z" fill="#1F5D5D"/>
<path d="M147.347 52.1068L156.613 54.5521C157.744 54.8522 158.82 55.3357 159.779 56.0047C163.37 58.4755 169.495 66.1737 173.02 73.4817C173.028 73.51 173.318 74.1078 173.589 75.0397C174.989 79.8762 168.909 84.0247 165.432 80.3841C165.4 80.3547 165.387 80.3052 165.318 80.2787C163.701 79.8789 160.311 114.434 165.222 124.032C165.358 124.299 165.613 124.471 165.902 124.52C167.7 124.83 174.457 125.715 181.239 123.056C181.341 123.012 181.448 123.119 181.392 123.219C180.369 125.012 173.995 134.924 152.188 144.549C151.625 144.799 151.019 144.954 150.4 145.007C148.313 145.19 143.192 145.502 138.428 144.698C137.571 144.557 136.841 143.999 136.469 143.218C135.233 140.649 132 134.512 131.56 131.107C131.695 131.069 128.62 127.583 124.05 124.861C122.637 124.022 121.454 122.858 120.627 121.442C118.759 118.226 115.023 111.55 113.735 102.07C113.725 102.034 113.676 102.025 113.672 102.064C113.356 103.49 111.574 112.919 110.502 118.604C109.965 121.444 110.183 124.36 111.134 127.086L114.573 136.938C114.747 137.447 114.376 137.971 113.84 137.969L106.15 137.921C105.415 137.914 104.725 137.551 104.309 136.943L94.567 122.611C94.2014 122.073 93.9938 121.444 93.9619 120.789L92.4359 89.2831C92.2422 85.2598 95.0601 81.7323 99.0205 81.014C104.157 80.0788 110.72 78.429 113.456 75.8331C113.498 75.9817 121.386 64.1229 124.076 58.623C124.23 58.3046 124.496 58.0541 124.824 57.916C124.995 57.8449 125.199 57.7568 125.441 57.6659C128.538 56.4879 131.62 59.4304 130.64 62.5931C128.583 69.2282 124.373 81.6166 125.011 83.8806C125.186 84.5032 128.25 77.4013 133.401 75.9503C133.513 75.7508 138.467 75.1956 138.603 69.7661C138.581 69.772 137.212 60.5435 134.29 54.4555C133.958 54.5492 134.388 51.9003 136.502 52.8169C136.969 52.6853 148.874 59.6184 149.62 68.8547C149.576 68.699 151.037 64.9121 150.621 62.8376C150.673 62.5864 147.757 56.9548 146.065 53.7125C145.615 52.8465 146.406 51.86 147.349 52.1138L147.347 52.1068Z" fill="#317975"/>
<path d="M133.934 29.2717C134.794 29.5869 135.472 29.4187 136.206 29.0671C137.511 28.4398 141.758 25.5406 142.959 23.7821C142.991 23.7348 143.051 23.7562 143.043 23.8117C142.675 25.4884 142.022 37.1882 138.994 41.3248C138.971 41.354 134.828 48.6073 134.796 48.5779C134.727 48.5211 138.022 32.9923 136.215 30.9431C136.08 30.7901 135.832 30.8599 135.811 31.0567C135.747 31.7238 135.737 33.0172 135.738 33.834C135.738 34.3227 135.635 34.7949 135.439 35.2394L132.292 42.3188C132.259 42.3893 130.064 49.1854 129.749 49.9385C129.736 49.9728 129.689 49.9706 129.667 49.9463L118.211 34.5477C117.975 34.4156 117.688 34.5882 117.694 34.8537L120.89 50.349C120.934 51.2377 119.976 51.2251 119.861 51.0893L110.594 39.0146C109.775 37.9777 110.147 36.4524 111.344 35.9015C112.541 35.3506 116.013 35.0676 116.523 34.6566C116.884 34.4176 118.65 32.2553 118.852 31.1828C118.947 31.0569 120.244 25.873 121.206 22.6466C121.375 22.0798 121.905 21.9 122.369 22.2733C123.535 23.2125 124.51 26.023 126.689 27.3336C126.929 27.4799 127.208 27.5465 127.49 27.5738C128.279 27.6343 130.186 27.8988 133.918 29.2686L133.934 29.2717Z" fill="#317975"/>
<path d="M160.648 87.3442L158.966 116.057C158.915 116.881 158.45 117.615 157.726 118.002C155.061 119.44 148.216 122.69 141.482 122.349C141.35 122.34 141.283 122.183 141.371 122.09C142.701 120.684 150.057 113.633 152.169 111.397C152.529 111.02 152.792 110.572 152.958 110.075C154.122 106.616 159.191 91.0686 160.422 87.301C160.462 87.1749 160.649 87.214 160.64 87.3462L160.648 87.3442Z" fill="#3F9084"/>
<path d="M128.459 62.3903L123.929 76.9231C123.855 77.1732 123.718 77.3948 123.533 77.5769L112.578 88.4975C112.541 88.5307 112.484 88.5163 112.484 88.4628C112.455 87.4399 112.281 80.3947 112.853 79.7143C112.964 79.5915 115.774 75.3865 120.823 72.4831C120.995 72.3889 121.141 72.2561 121.259 72.1081C122.302 70.7378 127.14 63.9989 128.329 62.3353C128.379 62.2679 128.486 62.3218 128.463 62.4045L128.459 62.3903Z" fill="#3F9084"/>
<path d="M97.6915 106.153L96.6305 116.135C96.6305 116.135 96.6385 116.163 96.6425 116.177L103.635 129.534C103.681 129.613 103.806 129.57 103.78 129.478L97.8552 106.138C97.8313 106.053 97.7121 106.063 97.7057 106.149L97.6915 106.153Z" fill="#3F9084"/>
<path d="M127.469 42.6848L121.052 35.0077C121.006 34.952 120.986 34.8813 120.994 34.8025L122.131 26.281C122.145 26.17 122.289 26.1372 122.35 26.2192L124.706 29.4044C125.005 29.8164 125.214 30.2847 125.307 30.7778L127.555 42.6377C127.569 42.6872 127.502 42.7213 127.467 42.6777L127.469 42.6848Z" fill="#3F9084"/>
</g>
<g clip-path="url(#clip4_100_1654)">
<path d="M142.21 285.221C150.238 285.221 156.745 278.723 156.745 270.707C156.745 262.692 150.238 256.194 142.21 256.194C134.183 256.194 127.675 262.692 127.675 270.707C127.675 278.723 134.183 285.221 142.21 285.221Z" fill="#3F9084"/>
<path d="M253.223 286C261.251 286 267.758 279.502 267.758 271.487C267.758 263.471 261.251 256.973 253.223 256.973C245.196 256.973 238.688 263.471 238.688 271.487C238.688 279.502 245.196 286 253.223 286Z" fill="#3F9084"/>
<path d="M135.713 247.973V252.005C135.713 252.356 135.889 252.668 136.182 252.863L137.567 253.739C137.84 253.915 138.016 254.187 138.035 254.519L139.459 271.175C139.615 272.967 142.015 273.435 142.815 271.818C145.839 265.72 150.424 256.661 151.907 254.499C152.121 254.187 152.492 254.032 152.863 254.07C152.863 254.07 155.067 254.129 155.204 254.07C155.282 254.032 155.204 247.992 155.204 247.992H135.674L135.713 247.973Z" fill="#317975"/>
<path d="M248.17 247.973V252.005C248.17 252.356 248.346 252.668 248.638 252.863L250.024 253.739C250.297 253.915 250.472 254.187 250.492 254.519L251.916 271.175C252.072 272.967 254.472 273.435 255.272 271.818C258.296 265.72 262.881 256.661 264.364 254.499C264.578 254.187 264.949 254.032 265.32 254.07C265.32 254.07 267.524 254.129 267.661 254.07C267.739 254.032 267.661 247.992 267.661 247.992H248.131L248.17 247.973Z" fill="#317975"/>
<path d="M293.668 250.252H102.175C100.653 250.252 99.3852 249.103 99.2291 247.603L82.9186 90.2148C82.8796 89.8836 82.6064 89.6303 82.2553 89.6303H78.0606C77.6899 89.6303 77.3972 89.3381 77.3972 88.968V75.6234C77.3972 75.2727 77.6704 75 78.0215 75H315.773C316.124 75 316.397 75.2922 316.397 75.6234V87.5458C316.397 87.916 316.105 88.2082 315.734 88.2082H312.963C312.632 88.2082 312.339 88.4615 312.32 88.7926L296.555 247.661C296.399 249.142 295.17 250.272 293.668 250.272V250.252Z" fill="#3F9084"/>
<path d="M77.3972 75V89.7082H82.5479L316.397 88.1303V75H77.3972Z" fill="#1F5D5D"/>
<path d="M261.398 88.5004C261.398 88.5004 270.314 92.4356 270.958 98.241C270.529 98.4553 261.398 237.862 261.398 237.862C261.398 237.862 261.261 246.96 251.135 250.272H293.999C295.326 250.272 296.458 249.259 296.594 247.934L312.963 88.1887L261.378 88.4809L261.398 88.5004Z" fill="#317975"/>
<path d="M99.2292 89.7082L117.042 218.147C117.042 218.147 117.042 219.394 117.413 221.362C119.539 232.953 129.353 241.622 141.118 242.732C160.374 244.564 201.502 247.973 201.502 247.973H132.826C118.466 247.973 105.843 237.687 103.775 223.485C103.678 222.862 103.6 222.238 103.541 221.576C103.248 222.433 82.9187 90.2147 82.9187 90.2147L99.2292 89.6887V89.7082Z" fill="#4B9B8E"/>
</g>
<path d="M325.412 207.302L302.901 209.067C300.985 209.219 299.122 208.365 297.985 206.809L295.762 203.76C294.405 201.902 293.383 199.827 292.74 197.615L291.18 192.247C290.43 189.667 289.959 187.02 289.771 184.337L288.228 162.405C287.844 156.922 290.038 151.573 294.166 147.94L313.731 130.738C314.557 130.012 314.17 128.657 313.084 128.467C311.762 128.24 310.597 127.456 309.9 126.316L303.812 116.37C302.848 114.79 303.805 112.731 305.637 112.451L307.165 112.219C309.018 111.94 310.527 110.591 311.011 108.782L313.014 101.336C313.201 100.65 314.082 100.46 314.529 101.015L317.411 104.596C317.816 105.096 318.38 105.437 319.017 105.545C320.256 105.763 322.448 106.215 324.026 106.886C325.013 107.311 326.15 107.153 326.952 106.435C328.405 105.122 330.637 103.038 332.112 101.094C332.674 100.352 333.824 100.51 334.143 101.381C334.8 103.183 335.695 105.714 336.3 107.452C336.751 108.729 336.77 110.12 336.368 111.413L333.847 119.501C333.457 120.744 334.241 122.045 335.52 122.284C342.518 123.586 362.944 127.683 371.945 132.582C373.486 133.423 374.748 134.678 375.609 136.202C379.301 142.704 390.323 164 388.912 184C388.774 184.306 388.963 187.447 376.552 191.646C370.821 193.584 365.405 196.421 360.721 200.248C355.516 204.499 345.519 209.365 328.187 207.359C327.272 207.253 326.346 207.223 325.424 207.298L325.412 207.302Z" fill="#1F5D5D"/>
<path d="M336.184 127.128L344.245 129.184C345.229 129.436 346.167 129.848 347.005 130.422C350.14 132.541 355.512 139.179 358.625 145.498C358.632 145.522 358.888 146.039 359.13 146.846C360.38 151.034 355.132 154.679 352.088 151.544C352.06 151.519 352.048 151.476 351.988 151.454C350.581 151.118 347.889 181.139 352.221 189.435C352.341 189.666 352.564 189.814 352.815 189.854C354.378 190.111 360.25 190.829 366.118 188.472C366.207 188.433 366.3 188.526 366.252 188.613C365.377 190.176 359.916 198.827 341.055 207.34C340.568 207.561 340.044 207.7 339.506 207.75C337.696 207.924 333.253 208.232 329.112 207.569C328.367 207.453 327.729 206.974 327.4 206.299C326.309 204.077 323.458 198.773 323.052 195.821C323.168 195.787 320.474 192.783 316.487 190.453C315.254 189.735 314.219 188.733 313.491 187.509C311.846 184.732 308.554 178.964 307.368 170.743C307.359 170.712 307.317 170.705 307.313 170.739C307.049 171.979 305.57 180.176 304.681 185.12C304.235 187.588 304.446 190.119 305.291 192.478L308.348 201.005C308.502 201.445 308.184 201.904 307.719 201.906L301.043 201.919C300.405 201.919 299.803 201.608 299.438 201.083L290.877 188.713C290.556 188.249 290.371 187.704 290.339 187.136L288.786 159.797C288.589 156.306 291.01 153.224 294.442 152.571C298.895 151.723 304.579 150.243 306.936 147.97C306.973 148.098 313.735 137.747 316.03 132.953C316.162 132.676 316.391 132.456 316.674 132.334C316.822 132.271 316.999 132.193 317.208 132.112C319.889 131.067 322.585 133.599 321.757 136.352C320.019 142.127 316.454 152.911 317.024 154.872C317.181 155.411 319.789 149.224 324.251 147.927C324.347 147.753 328.643 147.235 328.721 142.521C328.703 142.526 327.447 134.525 324.867 129.262C324.579 129.345 324.933 127.043 326.775 127.823C327.18 127.706 337.564 133.638 338.278 141.65C338.239 141.515 339.48 138.218 339.104 136.42C339.147 136.201 336.576 131.334 335.083 128.531C334.686 127.783 335.366 126.921 336.186 127.134L336.184 127.128Z" fill="#317975"/>
<path d="M324.375 107.403C325.124 107.67 325.712 107.519 326.346 107.209C327.474 106.655 331.141 104.107 332.17 102.572C332.198 102.531 332.25 102.549 332.244 102.597C331.936 104.055 331.454 114.216 328.855 117.829C328.836 117.855 325.291 124.181 325.264 124.156C325.203 124.107 327.951 110.603 326.367 108.837C326.249 108.705 326.035 108.768 326.018 108.939C325.967 109.518 325.968 110.641 325.975 111.35C325.978 111.774 325.892 112.185 325.725 112.572L323.045 118.741C323.016 118.802 321.16 124.717 320.892 125.373C320.881 125.403 320.84 125.402 320.821 125.381L310.765 112.097C310.56 111.984 310.311 112.135 310.318 112.366L313.205 125.794C313.249 126.565 312.417 126.561 312.317 126.444L304.185 116.029C303.467 115.135 303.779 113.808 304.814 113.321C305.849 112.835 308.861 112.564 309.301 112.203C309.612 111.993 311.13 110.103 311.297 109.171C311.378 109.061 312.467 104.552 313.279 101.744C313.422 101.251 313.88 101.091 314.286 101.411C315.305 102.218 316.171 104.651 318.073 105.773C318.282 105.898 318.524 105.954 318.77 105.976C319.454 106.022 321.112 106.238 324.361 107.4L324.375 107.403Z" fill="#317975"/>
<path d="M347.985 157.621L346.733 182.558C346.695 183.274 346.296 183.914 345.671 184.256C343.368 185.523 337.449 188.393 331.601 188.146C331.486 188.139 331.427 188.004 331.503 187.922C332.648 186.692 338.982 180.518 340.799 178.562C341.109 178.232 341.334 177.841 341.474 177.408C342.46 174.397 346.748 160.864 347.789 157.585C347.823 157.475 347.985 157.508 347.979 157.623L347.985 157.621Z" fill="#3F9084"/>
<path d="M319.862 136.192L316.035 148.84C315.972 149.058 315.856 149.251 315.696 149.41L306.265 158.97C306.233 158.999 306.183 158.987 306.183 158.94C306.151 158.052 305.949 151.938 306.441 151.343C306.536 151.236 308.945 147.565 313.306 145.008C313.455 144.925 313.581 144.809 313.683 144.68C314.578 143.482 318.729 137.598 319.749 136.145C319.792 136.086 319.885 136.132 319.866 136.204L319.862 136.192Z" fill="#3F9084"/>
<path d="M293.47 174.404L292.622 183.076C292.622 183.076 292.629 183.101 292.632 183.113L298.799 194.657C298.839 194.725 298.948 194.687 298.924 194.607L293.612 174.389C293.591 174.316 293.488 174.326 293.483 174.4L293.47 174.404Z" fill="#3F9084"/>
<path d="M318.861 119.093L313.235 112.475C313.194 112.427 313.176 112.366 313.183 112.297L314.108 104.892C314.12 104.795 314.244 104.766 314.298 104.837L316.366 107.585C316.629 107.94 316.813 108.345 316.897 108.772L318.935 119.051C318.947 119.094 318.89 119.124 318.859 119.087L318.861 119.093Z" fill="#3F9084"/>
<g clip-path="url(#clip5_100_1654)">
<path d="M109.851 268.774L133.182 257.278C135.17 256.3 136.513 254.358 136.723 252.148L137.13 247.821C137.381 245.182 137.172 242.526 136.507 239.957L134.894 233.723C134.119 230.727 133.027 227.828 131.635 225.061L120.259 202.433C117.413 196.776 112.094 192.77 105.868 191.602L76.3704 186.076C75.1257 185.844 74.7116 184.273 75.6749 183.447C76.8508 182.444 77.5432 180.982 77.5627 179.443L77.74 166.012C77.7654 163.879 75.6064 162.403 73.6265 163.204L71.9772 163.874C69.9778 164.687 67.6899 164.239 66.1459 162.733L59.7811 156.537C59.1933 155.968 58.2082 156.298 58.0918 157.111L57.3447 162.353C57.2383 163.087 56.88 163.756 56.3133 164.237C55.2137 165.182 53.3092 166.92 52.1418 168.513C51.4135 169.514 50.1945 170.026 48.9782 169.787C46.767 169.342 43.3301 168.591 40.7252 167.534C39.7322 167.13 38.6869 167.963 38.8828 169.013C39.2928 171.185 39.8953 174.218 40.3189 176.295C40.6238 177.825 41.4233 179.213 42.582 180.257L49.8375 186.784C50.9548 187.786 50.9441 189.535 49.8181 190.525C43.6533 195.931 25.8354 212.007 19.8039 222.154C18.7731 223.894 18.2615 225.879 18.3048 227.895C18.475 236.506 20.0894 264.082 33.2543 283.058C33.57 283.28 35.2315 286.502 49.9935 283.358C56.8094 281.906 63.8426 281.529 70.7323 282.563C78.3879 283.71 91.1519 282.647 107.136 270.463C107.98 269.82 108.879 269.245 109.837 268.777L109.851 268.774Z" fill="#1F5D5D"/>
<path d="M52.011 195.713L45.2369 202.492C44.4109 203.32 43.7251 204.28 43.2327 205.341C41.3748 209.284 39.9601 219.019 40.595 227.108C40.6023 227.136 40.6523 227.799 40.8883 228.74C42.114 233.624 49.4559 234.146 50.6267 229.25C50.6388 229.209 50.626 229.159 50.6718 229.102C51.8678 227.942 72.1975 256.088 72.7883 266.854C72.8051 267.153 72.6718 267.43 72.4469 267.618C71.0496 268.792 65.6574 272.958 58.4591 274.077C58.3486 274.09 58.3106 274.236 58.4091 274.295C60.1954 275.328 70.6938 280.682 94.3809 278.015C94.9937 277.948 95.595 277.777 96.1563 277.51C98.0517 276.618 102.633 274.308 106.344 271.215C107.013 270.662 107.363 269.812 107.292 268.95C107.065 266.108 106.768 259.177 105.433 256.015C105.298 256.05 106.199 251.489 108.777 246.836C109.574 245.4 110.011 243.799 110.012 242.158C110.006 238.439 109.872 230.79 106.211 221.951C106.201 221.916 106.239 221.883 106.262 221.915C107.253 222.987 113.541 230.236 117.33 234.608C119.224 236.791 120.504 239.421 121.055 242.254L123.045 252.498C123.151 253.025 123.737 253.291 124.198 253.02L130.817 249.105C131.449 248.729 131.862 248.068 131.915 247.333L133.115 230.046C133.16 229.396 133.022 228.748 132.72 228.166L118.172 200.179C116.314 196.605 112.103 194.977 108.319 196.35C103.411 198.129 96.9104 200.009 93.2389 199.144C93.2776 199.293 80.491 193.02 75.3973 189.623C75.1033 189.426 74.7477 189.343 74.3951 189.389C74.2116 189.414 73.9907 189.441 73.7361 189.484C70.4666 190.026 69.2857 194.12 71.7256 196.359C76.8441 201.055 86.7199 209.638 87.3091 211.915C87.4711 212.541 81.2478 207.949 76.0662 209.289C75.8691 209.173 71.31 211.188 68.4584 206.566C68.4797 206.56 65.0156 197.898 64.4738 191.167C64.8083 191.08 63.1028 189.008 61.7378 190.865C61.268 190.986 54.474 202.971 58.4813 211.327C58.4408 211.17 55.271 208.634 54.586 206.632C54.415 206.441 54.0976 200.108 53.9268 196.454C53.8796 195.48 52.6991 195.026 52.0129 195.72L52.011 195.713Z" fill="#317975"/>
<path d="M52.0994 169.23C51.515 169.935 50.8443 170.132 50.0335 170.197C48.5901 170.313 43.4605 169.947 41.538 169.032C41.486 169.008 41.4454 169.056 41.4797 169.1C42.6419 170.364 49.0984 180.142 53.7977 182.191C53.8317 182.205 61.0645 186.385 61.0766 186.344C61.108 186.26 50.4414 174.503 50.9705 171.823C51.0099 171.623 51.259 171.558 51.3762 171.718C51.7676 172.262 52.4275 173.374 52.8381 174.08C53.084 174.503 53.4115 174.858 53.8043 175.144L60.0877 179.675C60.1523 179.719 65.4712 184.485 66.1225 184.977C66.1512 185 66.1902 184.975 66.1971 184.943L68.3398 165.87C68.4769 165.638 68.8122 165.642 68.9407 165.874L73.983 180.871C74.3924 181.661 75.214 181.167 75.2447 180.992L77.1701 165.894C77.3556 164.585 76.2658 163.455 74.9544 163.582C73.643 163.709 70.5009 165.213 69.8528 165.115C69.4211 165.09 66.8061 164.111 66.0915 163.286C65.9465 163.225 62.2152 159.4 59.7588 157.097C59.3276 156.692 58.7793 156.804 58.5663 157.36C58.032 158.759 58.6051 161.678 57.3823 163.907C57.2488 164.154 57.0417 164.352 56.8113 164.518C56.1605 164.968 54.6457 166.157 52.1118 169.219L52.0994 169.23Z" fill="#317975"/>
<path d="M58.2649 232.854L74.1774 256.814C74.636 257.5 75.4078 257.9 76.2278 257.87C79.2548 257.77 86.8048 257.13 92.4505 253.445C92.5604 253.371 92.5394 253.201 92.4161 253.165C90.5589 252.621 80.6536 250.233 77.7025 249.364C77.202 249.221 76.7488 248.966 76.3555 248.62C73.6076 246.218 61.3986 235.338 58.4384 232.703C58.3396 232.615 58.198 232.742 58.272 232.852L58.2649 232.854Z" fill="#3F9084"/>
<path d="M73.5073 195.086L84.7396 205.36C84.93 205.538 85.1593 205.661 85.4112 205.725L100.375 209.643C100.424 209.653 100.466 209.612 100.439 209.566C99.9484 208.668 96.551 202.493 95.714 202.194C95.5567 202.143 91.0111 199.926 85.1876 199.959C84.9915 199.965 84.7986 199.923 84.6215 199.855C83.0309 199.196 75.4569 195.811 73.592 194.973C73.515 194.939 73.4499 195.04 73.511 195.1L73.5073 195.086Z" fill="#3F9084"/>
<path d="M122.127 217.4L128.071 225.489C128.071 225.489 128.078 225.518 128.082 225.532L128.767 240.593C128.767 240.684 128.637 240.71 128.613 240.618L121.978 217.469C121.956 217.384 122.064 217.333 122.113 217.404L122.127 217.4Z" fill="#3F9084"/>
<path d="M64.4393 177.562L66.1169 167.698C66.1288 167.627 66.1104 167.556 66.0635 167.492L60.7905 160.702C60.722 160.613 60.5815 160.657 60.5698 160.759L60.1384 164.697C60.0872 165.204 60.1431 165.714 60.311 166.186L64.3412 177.565C64.3541 177.615 64.429 177.611 64.4374 177.555L64.4393 177.562Z" fill="#3F9084"/>
</g>
<defs>
<clipPath id="clip0_100_1654">
<rect width="108" height="115" fill="white" transform="translate(134.397)"/>
</clipPath>
<clipPath id="clip1_100_1654">
<rect width="115" height="128" fill="white" transform="translate(198.397 11)"/>
</clipPath>
<clipPath id="clip2_100_1654">
<rect width="115" height="128" fill="white" transform="translate(320.462 139) rotate(14.5073)"/>
</clipPath>
<clipPath id="clip3_100_1654">
<rect width="115" height="128" fill="white" transform="translate(69.3972 36.1777) rotate(-15.7303)"/>
</clipPath>
<clipPath id="clip4_100_1654">
<rect width="239" height="211" fill="white" transform="translate(77.3972 75)"/>
</clipPath>
<clipPath id="clip5_100_1654">
<rect width="115" height="128" fill="white" transform="matrix(-0.968116 0.250503 0.250503 0.968116 111.333 142.696)"/>
</clipPath>
</defs>
</svg>
